# xmcd
#
# Track frame offsets:
#	150
#	19317
#	32305
#	49786
#	62363
#	71311
#	81202
#	90818
#	100932
#	113335
#	127343
#	138830
#	149965
#	159038
#	172249
#	184982
#	194407
#	209422
#	221292
#	236321
#	245039
#	257146
#	271088
#	284030
#
# Disc length: 4013 seconds
#
# Revision: 0
# Processed by: cddbd v1.5.2PL0 Copyright (c) Steve Scherf et al.
# Submitted via: EasyCDDAExtractor 10.0.6.1
#
DISCID=5a0fab18
DTITLE=Seelikukütid - Kollektsioon 2
DYEAR=2007
DGENRE=National Folk
TTITLE0=Põlva lugu
TTITLE1=Neiuke, kallike
TTITLE2=Armastus ja kevad
TTITLE3=Noormees Rudolf
TTITLE4=Põhjuseta ma ei joo
TTITLE5=Trulladi-trulla
TTITLE6=Moonika
TTITLE7=Tule ääres istun mina
TTITLE8=Varjud surnuaial
TTITLE9=Tule Mannike
TTITLE10=Ah, kui juba mürgel
TTITLE11=Ahastus
TTITLE12=Ai, taragaaja
TTITLE13=Joo ja jaura
TTITLE14=Kurat ja Liia
TTITLE15=Esmaspäeval ma tööle
TTITLE16=Luna-luna
TTITLE17=Lätsi külla
TTITLE18=Koduküla nõmmel
TTITLE19=Õllekapa Aadu
TTITLE20=Tahan koju
TTITLE21=Robert
TTITLE22=Lahkumislaul
TTITLE23=Kallid kaimud
EXTD=
EXTT0=
EXTT1=
EXTT2=
EXTT3=
EXTT4=
EXTT5=
EXTT6=
EXTT7=
EXTT8=
EXTT9=
EXTT10=
EXTT11=
EXTT12=
EXTT13=
EXTT14=
EXTT15=
EXTT16=
EXTT17=
EXTT18=
EXTT19=
EXTT20=
EXTT21=
EXTT22=
EXTT23=
PLAYORDER=
